# xmcd
#
# Track frame offsets:
#	150
#	20377
#	40217
#	57207
#	70102
#	85367
#	102352
#	123507
#	142665
#	160140
#	175965
#	191750
#	210277
#	227045
#	248447
#	267382
#
# Disc length: 3786
#
# Revision: 5
# Processed by: cddbd v1.5.1PL0 Copyright (c) Steve Scherf et al.
# Submitted via: ExactAudioCopy v0.90b4
# Normalized: r4:DSETVAR1
#
DISCID=d20ec810
DTITLE=Various Artist - The Greatest Hits
DYEAR=1986
DGENRE=Pop
TTITLE0=Bonnie Tyler - Total Eclipse of the Heart
TTITLE1=Bonnie Tyler - Holding Out For a Hero
TTITLE2=Bonnie Tyler - (The World is Full of) Married Men
TTITLE3=Bonnie Tyler with Shakin' Stevens - Rockin' Good Way
TTITLE4=Bonnie Tyler - Here She Comes
TTITLE5=Bonnie Tyler - Band of Gold
TTITLE6=Bonnie Tyler - Faster Than the Speed of Night
TTITLE7=Bonnie Tyler - Lovers Again
TTITLE8=Bonnie Tyler - Lost in France
TTITLE9=Bonnie Tyler - It's a Heartache
TTITLE10=Bonnie Tyler - Getting So Excited
TTITLE11=Bonnie Tyler - Have You Ever Seen the Rain?
TTITLE12=Bonnie Tyler - I Believe in Your Sweet Love
TTITLE13=Bonnie Tyler - If I Sing You a Love Song
TTITLE14=Bonnie Tyler - More Than a Lover
TTITLE15=Bonnie Tyler - Straight From the Heart
EXTD=
EXTT0=
EXTT1=
EXTT2=
EXTT3=
EXTT4=
EXTT5=
EXTT6=
EXTT7=
EXTT8=
EXTT9=
EXTT10=
EXTT11=
EXTT12=
EXTT13=
EXTT14=
EXTT15=
PLAYORDER=
